<svg id="Scrool_Down" data-name="Scrool Down" xmlns="http://www.w3.org/2000/svg" width="71" height="71" viewBox="0 0 71 71">
  <defs>
    <style>
      .cls-1 {
        fill: #fff;
        stroke: #dcdcdc;
        stroke-width: 1px;
      }

      .cls-2 {
        fill: #dcdcdc;
        fill-rule: evenodd;
      }
    </style>
  </defs>
  <circle id="bg" class="cls-1" cx="35.5" cy="35.5" r="35"/>
  <path id="Icon" class="cls-2" d="M948.375,1049.89a1.339,1.339,0,0,1,0-1.86,1.216,1.216,0,0,1,1.771,0l9.073,9.44V1026.3a1.274,1.274,0,0,1,1.254-1.3,1.287,1.287,0,0,1,1.271,1.3v31.17l9.056-9.44a1.237,1.237,0,0,1,1.789,0,1.339,1.339,0,0,1,0,1.86l-11.221,11.68a1.2,1.2,0,0,1-1.771,0Z" transform="translate(-924.5 -1007.5)"/>
</svg>
